<svg width="102" height="102" viewBox="0 0 102 102" fill="none" xmlns="http://www.w3.org/2000/svg">
<path fill-rule="evenodd" clip-rule="evenodd" d="M101.87 101.87L0.40625 0.406252L54.1464 0.40625L101.87 48.1297V101.87Z" fill="#FF0000"/>
<path d="M39.7029 25.776C38.1954 24.2685 37.3436 22.7425 37.1475 21.1982C36.9759 19.6539 37.4845 18.2873 38.6734 17.0984L39.1514 16.6204C39.5191 16.2527 39.9052 15.9892 40.3096 15.8299C40.7386 15.6705 41.1492 15.5664 41.5414 15.5173C41.9459 15.456 42.3013 15.3948 42.6077 15.3335C42.9387 15.2722 43.1899 15.1558 43.3615 14.9842C43.5331 14.8126 43.6189 14.6532 43.6189 14.5062C43.6189 14.3591 43.5147 14.1814 43.3064 13.973L42.3136 12.9802L44.9978 10.8476L48.2151 14.0649C48.8769 14.7268 49.1772 15.3212 49.1159 15.8483C49.0792 16.3753 48.7911 16.9084 48.2519 17.4477C47.8351 17.8645 47.3816 18.1586 46.8914 18.3302C46.4256 18.5018 45.9538 18.6305 45.4758 18.7163C45.01 18.7898 44.5504 18.894 44.0969 19.0288C43.6679 19.1636 43.2818 19.4026 42.9387 19.7458L42.1297 20.5548C41.2595 21.425 41.2902 22.3258 42.2217 23.2573C42.7364 23.7721 43.2267 24.0172 43.6924 23.9927C44.1704 23.9805 44.6301 23.7537 45.0713 23.3125L51.267 17.1168L54.7233 20.5731L48.4909 26.8056C47.2652 28.0312 45.868 28.546 44.2991 28.3499C42.7548 28.1538 41.2227 27.2958 39.7029 25.776ZM49.5803 35.2857L55.4818 29.3842C56.0946 28.7714 56.4133 28.2198 56.4378 27.7296C56.4623 27.2393 56.1804 26.7 55.5921 26.1117C55.1631 25.6827 54.6974 25.315 54.1949 25.0086C53.6924 24.7022 53.2021 24.4448 52.7241 24.2365L55.0774 21.8832C55.6289 22.0671 56.254 22.3857 56.9526 22.8392C57.6635 23.2804 58.3069 23.7891 58.883 24.3651C60.3783 25.8604 61.1321 27.2761 61.1443 28.612C61.1566 29.948 60.507 31.2717 59.1955 32.5831L53.0366 38.742L49.5803 35.2857ZM59.4206 45.4937C57.815 43.8881 56.8222 42.3438 56.4423 40.8607C56.0868 39.3777 56.4668 38.0785 57.5821 36.9632C57.9989 36.5465 58.4646 36.2523 58.9794 36.0807C59.4942 35.9091 60.0334 35.8846 60.5972 36.0072C60.4869 35.5537 60.5053 35.0573 60.6524 34.518C60.8117 33.991 61.1243 33.4946 61.59 33.0288C62.5951 32.0238 63.6736 31.6071 64.8257 31.7787C65.9778 31.9503 67.1116 32.5937 68.2269 33.7091C68.6559 34.138 68.9991 34.5425 69.2565 34.9225C69.5261 35.2902 69.7345 35.6333 69.8816 35.952L67.5283 38.3053C67.2709 37.8763 66.9522 37.4718 66.5723 37.0919C66.2659 36.7855 65.9717 36.5893 65.6898 36.5036C65.4324 36.4178 65.1689 36.5097 64.8993 36.7793C64.6174 37.0612 64.5132 37.337 64.5867 37.6066C64.6725 37.864 64.8686 38.1459 65.175 38.4523L66.0943 39.3716L63.9984 41.6881L62.9505 40.6401C62.2886 39.9783 61.6758 39.9292 61.112 40.493C60.8424 40.7627 60.7504 41.0875 60.8362 41.4674C60.9343 41.8351 61.2836 42.3193 61.8842 42.9198C63.0363 44.072 64.0658 44.1945 64.9728 43.2875L71.2053 37.0551L74.6616 40.5114L68.5578 46.6152C67.1851 47.9879 65.7205 48.5456 64.1639 48.2882C62.6196 48.0431 61.0385 47.1116 59.4206 45.4937ZM70.1342 56.2073C69.3008 55.3738 68.7186 54.473 68.3876 53.5047C68.0567 52.5365 68.0567 51.5192 68.3876 50.4529C68.7308 49.3743 69.4846 48.2528 70.649 47.0884C72.4139 45.3235 74.2279 44.4288 76.0909 44.4043C77.9539 44.3798 79.8291 45.3112 81.7166 47.1988C82.9545 48.4367 83.7634 49.6378 84.1434 50.8022C84.5356 51.9543 84.5969 53.0206 84.3272 54.0011C84.0821 54.9816 83.6041 55.8273 82.8932 56.5382L76.863 62.5684L73.4067 59.1121L79.1244 53.3944C79.7004 52.8184 80.0313 52.2423 80.1171 51.6663C80.2152 51.0779 79.8843 50.4038 79.1244 49.6439C78.4257 48.9453 77.6842 48.6695 76.8998 48.8166C76.1276 48.9759 75.2207 49.5765 74.1788 50.6183C73.3209 51.4763 72.8429 52.1994 72.7448 52.7877C72.6713 53.376 72.9164 53.9521 73.4802 54.5159C73.6763 54.712 73.8847 54.8958 74.1053 55.0674C74.3259 55.239 74.5343 55.3738 74.7304 55.4719L72.3955 57.8068C72.0646 57.6719 71.7092 57.4758 71.3292 57.2185C70.9615 56.9733 70.5632 56.6363 70.1342 56.2073ZM79.0721 42.826L81.5356 40.6934L87.3636 46.5214L88.7608 45.1241L91.5369 47.9002L87.8416 51.5956L79.0721 42.826Z" fill="white"/>
</svg>
