<svg width="80" height="80" viewBox="0 0 80 80" fill="none" xmlns="http://www.w3.org/2000/svg">
<ellipse cx="40.5795" cy="39.7241" rx="34.2592" ry="25.6447" fill="#F5F24F"/>
<path fill-rule="evenodd" clip-rule="evenodd" d="M36.0975 0.113539C35.742 0.17273 34.9017 0.296859 34.2301 0.38938C32.6825 0.602727 29.509 1.24061 29.2125 1.39793C29.0885 1.46373 28.2761 1.72218 27.407 1.97231C26.538 2.22243 25.5684 2.57672 25.2524 2.75946C24.9363 2.94235 24.2576 3.24247 23.7441 3.42637C23.2306 3.61026 22.4872 3.95032 22.0922 4.18192C21.6972 4.41351 21.0974 4.72225 20.7594 4.86793C19.9266 5.22695 15.4534 8.26509 14.1199 9.37751C12.4184 10.7968 11.0249 12.2069 9.29231 14.2625C8.29599 15.4444 6.16158 18.4689 5.61587 19.4719C5.36909 19.9254 4.92825 20.6521 4.63622 21.0867C4.34419 21.5213 4.05776 22.0385 3.99959 22.236C3.94155 22.4336 3.68256 23.0154 3.424 23.529C3.16544 24.0427 2.87198 24.7215 2.77171 25.0376C2.67159 25.3536 2.37755 26.1294 2.11856 26.7616C1.85943 27.3937 1.56883 28.3311 1.47273 28.8447C1.37664 29.3584 1.15155 30.2635 0.972277 30.8561C-0.166249 34.6212 -0.332733 42.6258 0.620636 47.7642C1.35078 51.6997 2.74715 55.5795 4.7214 59.1586C5.8809 61.2607 8.05453 64.5184 8.89628 65.4159C9.12267 65.6571 9.5987 66.2066 9.95422 66.6371C10.3096 67.0673 10.7677 67.5617 10.9719 67.7357C11.1762 67.9095 11.8228 68.545 12.4085 69.1479C13.4821 70.2529 15.4348 71.7908 18.359 73.8345C20.1498 75.086 26.1553 77.8882 27.9816 78.3244C28.4556 78.4376 29.199 78.6587 29.6335 78.8159C30.068 78.9731 31.8395 79.3047 33.5701 79.5526C36.3105 79.9456 37.104 80.0033 39.7175 79.9999C41.8062 79.9971 43.142 79.925 44.1123 79.7622C44.8789 79.6337 46.1203 79.4812 46.8709 79.4236C50.4421 79.1496 57.731 76.4504 60.8083 74.2624C61.4338 73.8176 62.1253 73.3422 62.3447 73.2061C63.2401 72.6508 65.4784 71.011 66.673 70.0351C67.6885 69.2053 68.3503 68.5382 69.4373 67.2482C69.9825 66.601 70.4992 66.0279 70.5853 65.9748C70.82 65.8297 73.7407 61.885 73.875 61.5318C73.9391 61.3633 74.161 61.024 74.3683 60.7776C74.5757 60.531 74.9348 59.8696 75.1667 59.3076C75.3984 58.7455 75.7086 58.1104 75.856 57.896C76.0035 57.6817 76.2111 57.2801 76.3174 57.0036C76.4236 56.727 76.6991 56.1197 76.9295 55.6541C77.5052 54.4904 78.7095 50.7941 78.9053 49.5893C78.9939 49.0447 79.2226 47.9525 79.4135 47.1624C79.8139 45.5049 80.0602 41.5567 79.9872 37.9676C79.9265 34.9775 79.1779 30.671 78.3266 28.4137C78.103 27.8211 77.7767 26.7867 77.6013 26.1151C77.4259 25.4434 77.0724 24.4737 76.8158 23.96C76.5592 23.4464 76.3061 22.8384 76.2535 22.609C76.2009 22.3797 75.9757 21.9272 75.753 21.6033C75.3049 20.9517 74.8121 20.1257 74.1597 18.9317C73.1891 17.1558 71.0084 14.3994 68.8177 12.1793C65.9693 9.29274 63.3565 7.25769 60.3734 5.6025C60.0179 5.40524 59.2746 4.97826 58.7215 4.65358C58.1685 4.32903 57.3605 3.9259 56.926 3.75795C56.4914 3.59001 55.5542 3.19003 54.8431 2.86908C53.0664 2.06727 50.1014 1.16102 48.378 0.892935C47.5885 0.770243 46.4256 0.567959 45.7935 0.443687C45.1615 0.319414 44.3212 0.166121 43.9261 0.103051C43.0289 -0.0400418 36.9716 -0.0318527 36.0975 0.113539ZM56.6697 24.6617C58.102 24.8287 58.2343 24.88 61.6427 26.5923C62.3211 26.9331 64.7636 29.3157 65.0911 29.956C65.2029 30.1745 65.5748 30.6976 65.9178 31.1186C66.2802 31.5635 66.5812 32.105 66.6365 32.4116C66.6888 32.7018 66.7896 33.0516 66.8604 33.189C67.1602 33.7698 67.5615 35.7721 67.6473 37.116C67.7427 38.608 67.5798 40.2195 67.1691 41.8467C66.9462 42.7302 65.8888 44.9355 65.6881 44.9355C65.6267 44.9355 65.4373 45.2312 65.2674 45.5926C65.0976 45.954 64.6614 46.5197 64.2982 46.8497C63.935 47.1797 63.2331 47.8436 62.7384 48.3249C61.9083 49.1329 60.0621 50.3067 59.8022 50.3867C59.7351 50.3867 58.7646 50.8618 57.7878 51.2569C56.3547 51.6974 55.9956 51.7692 55.2774 51.9129C54.8527 51.9978 54.324 52.0488 54.1513 52.1387C53.2165 52.6257 51.3764 54.2157 48.8819 56.6923C47.3413 58.2216 45.9218 59.5351 45.7273 59.6111C45.3135 59.7728 44.7748 59.6695 44.6852 59.4113C44.6505 59.3117 44.6734 58.6163 44.6734 57.8262C44.6734 56.6923 44.7171 56.1022 44.7171 55.499C44.7171 55.4557 44.7552 54.5513 44.8171 53.9472C44.879 53.343 44.879 52.9105 44.7453 52.6541C44.5589 52.2968 44.458 52.2231 43.8834 52.0795C43.6679 52.0795 43.3379 52.0405 43.0215 52.0795C42.745 52.0622 38.4174 52.0689 33.4401 52.0469C28.4628 52.0248 24.1966 51.9995 23.9596 51.9906C23.7126 51.9814 23.104 51.8234 22.7449 51.6974C22.1598 51.4921 22.1213 51.433 21.1876 51.002C20.2539 50.571 19.9147 50.3937 19.4882 50.0129C19.1822 49.7399 18.7058 49.3675 18.4292 49.1853C18.1483 48.95 17.6528 48.5705 17.2801 48.1844C16.8987 47.7893 16.3905 47.4074 16.2091 47.226C15.9218 46.9387 15.85 46.795 15.5627 46.4358C15.1318 45.7175 14.6261 44.8604 13.818 43.782C13.3346 43.1372 12.8304 41.928 12.8304 41.928C12.8304 41.928 12.4713 40.2758 12.3953 39.2524C12.3487 38.6253 12.3198 38.152 12.3953 37.4919C12.4713 36.8278 12.615 35.7503 12.615 35.7503C12.882 34.4083 13.2434 33.7158 13.8326 32.4927C14.6435 30.8094 14.8289 30.5574 16.6132 28.713C17.7834 27.5033 19.7264 26.0932 20.6147 25.809C20.8742 25.726 21.4745 25.4763 21.9485 25.2541C22.7633 24.8723 23.6665 24.7152 26.4015 24.4795C27.944 24.3467 55.3832 24.5117 56.6697 24.6617ZM26.3515 33.2861C25.0763 33.3661 24.9914 33.392 24.6644 33.8013C24.2441 34.3274 24.2211 35.0092 24.5959 35.8346C24.8797 36.4598 24.9919 36.5243 26.0424 36.6654C26.9963 36.7936 41.9923 36.8032 43.4639 36.6766C44.9394 36.5496 45.5308 36.238 45.8405 35.4241C46.0206 34.9506 46.0139 34.8406 45.7737 34.3489C45.5977 33.9886 45.3097 33.703 44.9317 33.5139C44.3778 33.2369 44.0566 33.2262 36.0257 33.2142C31.4434 33.2075 27.09 33.2398 26.3515 33.2861ZM50.2099 33.5239C49.1663 34.1495 48.8885 35.0977 49.5266 35.8563C50.2063 36.6643 50.7437 36.8135 52.9757 36.8144C54.8335 36.8153 55.0281 36.7897 55.5289 36.4797C56.1975 36.0658 56.495 35.5164 56.495 34.6955C56.495 33.4789 55.6541 33.1801 52.1857 33.1638C50.972 33.1582 50.7534 33.198 50.2099 33.5239ZM37.7494 39.4684C29.7835 39.5202 25.4533 39.5993 25.2911 39.6958C25.1545 39.777 24.8797 40.0643 24.6807 40.3343C24.2619 40.9019 24.2125 41.5837 24.5436 42.2242C25.0095 43.1252 24.5011 43.0947 38.7251 43.0754C52.4971 43.0569 52.2409 43.0697 52.5926 42.384C52.8272 41.9267 52.9092 40.9381 52.743 40.573C52.56 40.1716 51.2657 39.5304 50.462 39.4432C50.1855 39.4132 44.4648 39.4246 37.7494 39.4684Z" fill="black"/>
</svg>
