<svg width="61" height="60" viewBox="0 0 61 60" fill="none" xmlns="http://www.w3.org/2000/svg">
<g clip-path="url(#clip0_147_618)">
<path d="M0.461914 30C0.461914 46.5685 13.8934 60 30.4619 60C47.0305 60 60.4619 46.5685 60.4619 30C60.4619 13.4315 47.0305 0 30.4619 0C13.8934 0 0.461914 13.4315 0.461914 30Z" fill="#1877F2"/>
<path d="M45.4619 30C45.4619 21.75 38.7119 15 30.4619 15C22.2119 15 15.4619 21.75 15.4619 30C15.4619 37.5 20.8994 43.6875 28.0244 44.8125V34.3125H24.2744V30H28.0244V26.625C28.0244 22.875 30.2744 20.8125 33.6494 20.8125C35.3369 20.8125 37.0244 21.1875 37.0244 21.1875V24.9375H35.1494C33.2744 24.9375 32.7119 26.0625 32.7119 27.1875V30H36.8369L36.0869 34.3125H32.5244V45C40.0244 43.875 45.4619 37.5 45.4619 30Z" fill="white"/>
</g>
<defs>
<clipPath id="clip0_147_618">
<rect width="60" height="60" fill="white" transform="translate(0.461914)"/>
</clipPath>
</defs>
</svg>
