<svg width="119" height="119" viewBox="0 0 119 119" fill="none" xmlns="http://www.w3.org/2000/svg">
<g clip-path="url(#clip0_1083_918)">
<circle cx="59.5" cy="59.5" r="59" fill="white" stroke="#C4C4C4"/>
<path fill-rule="evenodd" clip-rule="evenodd" d="M36.2354 28.633C33.6831 31.0174 31.5804 33.8791 29.672 37.5655C27.0211 42.6862 26.1859 47.1561 27.8797 47.1561C29.0052 47.1561 29.3898 46.616 30.3224 43.728C31.9631 38.6448 34.2856 34.8048 37.7872 31.385C40.1068 29.1193 40.4197 28.3732 39.4251 27.4799C38.5342 26.68 38.1952 26.8025 36.2354 28.633ZM57.7178 27.451C56.8056 27.9421 55.7244 29.5991 56.0835 29.9554C56.1947 30.0661 57.5752 30.1565 59.1513 30.1565C62.2897 30.1565 62.7842 29.8531 62.0039 28.4062C61.2495 27.0075 59.3343 26.5809 57.7178 27.451ZM78.8543 27.8311C78.4438 28.6086 78.8572 29.482 80.2594 30.798C82.857 33.2364 86.4281 38.3455 87.3215 40.9016C87.6296 41.7836 88.181 43.3713 88.5466 44.4298C89.3447 46.7391 89.6553 47.1561 90.5778 47.1561C92.2661 47.1561 92.4155 46.0563 91.2159 42.4617C89.5512 37.4741 87.052 33.4105 83.3186 29.6203C81.5075 27.7817 80.8015 27.2698 80.0771 27.2698C79.5234 27.2698 79.0318 27.4956 78.8543 27.8311ZM41.7369 33.9253C39.9733 35.4771 37.5316 38.7025 36.5328 40.8002C35.2873 43.4156 34.1304 47.2722 34.2591 48.3785C34.346 49.1255 34.5064 49.241 35.4557 49.241C36.6149 49.241 36.7303 49.1152 37.5183 46.9957C39.5841 41.4385 40.2303 40.288 42.9839 37.2669C44.8209 35.251 45.2379 34.1072 44.3658 33.4743C43.4846 32.8351 42.8527 32.9435 41.7369 33.9253ZM74.2908 33.9843C73.7795 34.9328 73.8477 35.1098 75.4306 36.9461C78.2259 40.1889 80.5513 44.4147 81.2314 47.4874C81.4851 48.6338 82.7464 49.801 83.4443 49.5354C84.8 49.0193 84.5152 45.7791 82.7988 42.1845C81.2789 39.0018 80.3079 37.5623 78.0918 35.2083C76.207 33.2059 74.9321 32.7953 74.2908 33.9843ZM56.1782 35.1891C54.3868 35.4864 51.3054 36.66 49.5292 37.721C46.3243 39.6362 44.029 42.4931 42.684 46.2407C41.8895 48.4551 41.8232 49.0979 41.5972 56.7448C41.3141 66.348 41.1722 67.5848 40.1504 69.3765C39.01 71.3763 38.9454 71.5393 39.194 71.7872C39.7263 72.318 74.2782 73.0384 77.6693 72.5894C79.9013 72.2937 80.2497 71.7522 79.1223 70.3304C77.5184 68.3071 77.4266 67.7156 77.3267 58.7453C77.2355 50.5596 77.0603 47.9888 76.5477 47.3165C76.4132 47.1401 76.1213 46.436 75.8993 45.7522C74.8391 42.4889 71.01 38.4751 67.2824 36.72C64.0691 35.2067 59.7015 34.6047 56.1782 35.1891ZM52.0052 77.5501C40.8447 77.6123 36.8831 77.7329 36.5324 78.0219C35.7783 78.6428 36.1704 82.6134 37.0745 83.5114C37.741 84.1731 38.0898 84.2065 45.3649 84.304C54.0358 84.4198 53.6502 84.2819 54.0358 87.4098C54.424 90.5573 58.0514 92.7672 61.159 91.7495C62.9154 91.1744 64.468 89.1701 64.7224 87.1493C65.0718 84.3759 64.5559 84.543 73.3263 84.3627C80.9751 84.2055 81.1374 84.1882 81.7253 83.4669C82.4843 82.5361 82.8389 80.2543 82.4671 78.6942L82.1808 77.4926L74.5937 77.4798C70.4207 77.4724 60.2562 77.5042 52.0052 77.5501Z" fill="black"/>
</g>
<defs>
<clipPath id="clip0_1083_918">
<rect width="119" height="119" rx="59.5" fill="white"/>
</clipPath>
</defs>
</svg>
