<svg width="119" height="119" viewBox="0 0 119 119" fill="none" xmlns="http://www.w3.org/2000/svg">
<g clip-path="url(#clip0_1083_893)">
<circle cx="59.5" cy="59.5" r="59" fill="white" stroke="#C4C4C4"/>
<path d="M90.75 83H28.25C24.7982 83 22 80.2018 22 76.75V39.25C22 35.7982 24.7982 33 28.25 33H90.75C94.2018 33 97 35.7982 97 39.25V76.75C97 80.2018 94.2018 83 90.75 83ZM38.6667 48.1042V42.8958C38.6667 42.0329 37.9671 41.3333 37.1042 41.3333H31.8958C31.0329 41.3333 30.3333 42.0329 30.3333 42.8958V48.1042C30.3333 48.9671 31.0329 49.6667 31.8958 49.6667H37.1042C37.9671 49.6667 38.6667 48.9671 38.6667 48.1042ZM51.1667 48.1042V42.8958C51.1667 42.0329 50.4671 41.3333 49.6042 41.3333H44.3958C43.5329 41.3333 42.8333 42.0329 42.8333 42.8958V48.1042C42.8333 48.9671 43.5329 49.6667 44.3958 49.6667H49.6042C50.4671 49.6667 51.1667 48.9671 51.1667 48.1042ZM63.6667 48.1042V42.8958C63.6667 42.0329 62.9671 41.3333 62.1042 41.3333H56.8958C56.0329 41.3333 55.3333 42.0329 55.3333 42.8958V48.1042C55.3333 48.9671 56.0329 49.6667 56.8958 49.6667H62.1042C62.9671 49.6667 63.6667 48.9671 63.6667 48.1042ZM76.1667 48.1042V42.8958C76.1667 42.0329 75.4671 41.3333 74.6042 41.3333H69.3958C68.5329 41.3333 67.8333 42.0329 67.8333 42.8958V48.1042C67.8333 48.9671 68.5329 49.6667 69.3958 49.6667H74.6042C75.4671 49.6667 76.1667 48.9671 76.1667 48.1042ZM88.6667 48.1042V42.8958C88.6667 42.0329 87.9671 41.3333 87.1042 41.3333H81.8958C81.0329 41.3333 80.3333 42.0329 80.3333 42.8958V48.1042C80.3333 48.9671 81.0329 49.6667 81.8958 49.6667H87.1042C87.9671 49.6667 88.6667 48.9671 88.6667 48.1042ZM44.9167 60.6042V55.3958C44.9167 54.5329 44.2171 53.8333 43.3542 53.8333H38.1458C37.2829 53.8333 36.5833 54.5329 36.5833 55.3958V60.6042C36.5833 61.4671 37.2829 62.1667 38.1458 62.1667H43.3542C44.2171 62.1667 44.9167 61.4671 44.9167 60.6042ZM57.4167 60.6042V55.3958C57.4167 54.5329 56.7171 53.8333 55.8542 53.8333H50.6458C49.7829 53.8333 49.0833 54.5329 49.0833 55.3958V60.6042C49.0833 61.4671 49.7829 62.1667 50.6458 62.1667H55.8542C56.7171 62.1667 57.4167 61.4671 57.4167 60.6042ZM69.9167 60.6042V55.3958C69.9167 54.5329 69.2171 53.8333 68.3542 53.8333H63.1458C62.2829 53.8333 61.5833 54.5329 61.5833 55.3958V60.6042C61.5833 61.4671 62.2829 62.1667 63.1458 62.1667H68.3542C69.2171 62.1667 69.9167 61.4671 69.9167 60.6042ZM82.4167 60.6042V55.3958C82.4167 54.5329 81.7171 53.8333 80.8542 53.8333H75.6458C74.7829 53.8333 74.0833 54.5329 74.0833 55.3958V60.6042C74.0833 61.4671 74.7829 62.1667 75.6458 62.1667H80.8542C81.7171 62.1667 82.4167 61.4671 82.4167 60.6042ZM38.6667 73.1042V67.8958C38.6667 67.0329 37.9671 66.3333 37.1042 66.3333H31.8958C31.0329 66.3333 30.3333 67.0329 30.3333 67.8958V73.1042C30.3333 73.9671 31.0329 74.6667 31.8958 74.6667H37.1042C37.9671 74.6667 38.6667 73.9671 38.6667 73.1042ZM76.1667 73.1042V67.8958C76.1667 67.0329 75.4671 66.3333 74.6042 66.3333H44.3958C43.5329 66.3333 42.8333 67.0329 42.8333 67.8958V73.1042C42.8333 73.9671 43.5329 74.6667 44.3958 74.6667H74.6042C75.4671 74.6667 76.1667 73.9671 76.1667 73.1042ZM88.6667 73.1042V67.8958C88.6667 67.0329 87.9671 66.3333 87.1042 66.3333H81.8958C81.0329 66.3333 80.3333 67.0329 80.3333 67.8958V73.1042C80.3333 73.9671 81.0329 74.6667 81.8958 74.6667H87.1042C87.9671 74.6667 88.6667 73.9671 88.6667 73.1042Z" fill="black"/>
</g>
<defs>
<clipPath id="clip0_1083_893">
<rect width="119" height="119" rx="59.5" fill="white"/>
</clipPath>
</defs>
</svg>
