<svg width="119" height="119" viewBox="0 0 119 119" fill="none" xmlns="http://www.w3.org/2000/svg">
<g clip-path="url(#clip0_1083_831)">
<circle cx="59.5" cy="59.5" r="59" fill="white" stroke="#C4C4C4"/>
<path fill-rule="evenodd" clip-rule="evenodd" d="M37.6998 24.7596C35.1555 25.9663 34.0022 27.1125 32.9348 29.4952C31.8295 31.9627 31.7289 33.4297 32.5034 35.7839C32.9554 37.1577 33.4157 38.0162 34.2544 39.0482C35.8745 41.0423 53.1639 58.4756 54.2782 59.2384C55.624 60.16 58.5453 61.2059 59.7756 61.2068C60.8305 61.2077 64.0983 59.9934 64.8649 59.3158C66.5417 57.8336 84.5362 39.4069 85.0613 38.634C86.5483 36.4464 87.224 33.8076 86.8089 31.8102C86.2688 29.2113 84.8126 26.9746 82.8397 25.7138C81.8949 25.1101 78.6036 24 77.7582 24C77.4517 24 76.2836 24.3587 75.1624 24.797C72.8345 25.7072 73.1978 25.3889 65.2567 33.4712C60.1414 38.6771 59.9043 38.8522 58.77 38.2678C58.2893 38.02 56.6213 36.4158 53.4046 33.1068C50.7359 30.3618 46.8973 26.5821 46.1786 25.9917C45.1103 25.114 42.7733 24.3015 40.912 24.1606C39.354 24.0427 39.1191 24.0864 37.6998 24.7596ZM43.4667 28.928C43.9707 29.2749 47.6508 32.8509 51.6447 36.8752C57.623 42.899 59.0143 44.192 59.5181 44.192C60.0228 44.192 61.4627 42.848 67.7217 36.5349C74.9096 29.2846 75.3795 28.8567 76.5653 28.4808C78.2338 27.9517 78.7481 27.9783 80.0123 28.6587C81.335 29.3706 81.7736 29.8691 82.6093 31.6101C83.2451 32.9342 83.2575 33.0208 82.9681 34.1504C82.7989 34.8102 82.2741 35.8438 81.7633 36.5229C81.2654 37.1847 76.8078 41.8252 71.8576 46.8355C61.9712 56.8417 61.6248 57.1239 59.2239 57.1239C58.5347 57.1239 57.9079 57.0209 57.831 56.895C57.7541 56.7691 57.3391 56.483 56.9088 56.2595C56.4785 56.036 51.9432 51.6215 46.8301 46.4494C38.5053 38.0282 37.4527 36.882 36.7577 35.4836C35.61 33.1737 35.7198 32.1408 37.3446 29.9616C38.0391 29.0301 38.4553 28.7031 39.2899 28.4332C40.7619 27.9574 42.3246 28.1425 43.4667 28.928ZM38.8805 57.4359C38.1945 57.5842 37.3487 57.9323 37.0013 58.2088C36.6537 58.4856 36.2568 58.715 36.1194 58.7186C35.7868 58.7275 34.7033 59.7618 33.764 60.9672C32.7327 62.2908 31.8707 65.0401 32.0175 66.5393C32.1966 68.3695 32.9976 70.4104 34.1266 71.9135C34.7057 72.6844 37.7552 75.8956 40.9033 79.0494C54.8927 93.0649 54.6437 92.846 57.4962 93.6435C58.9892 94.0609 59.3559 94.0845 60.7765 93.8551C63.3979 93.432 65.2914 92.1733 69.158 88.2837C73.1851 84.2329 81.5076 75.5778 83.3895 73.4837C85.5737 71.0534 85.9791 70.4781 86.3816 69.2364C87.1413 66.8936 87.174 66.2318 86.6276 64.2528C86.0149 62.034 85.7969 61.5988 84.6176 60.2441C82.8308 58.1911 79.3604 56.8503 76.8255 57.2333C74.2525 57.6221 73.0445 58.6031 64.7793 67.0162C62.4376 69.3995 60.3298 71.4187 60.0952 71.5031C59.1042 71.8593 58.2075 71.1678 53.8649 66.6983C47.4348 60.0808 46.1065 58.8434 44.6098 58.0772C43.0191 57.2628 40.8183 57.0164 38.8805 57.4359ZM43.2652 61.8357C43.635 62.021 46.8709 65.1462 50.4562 68.7801C58.3523 76.7832 58.92 77.3159 59.5549 77.3159C59.8897 77.3159 60.7691 76.5858 62.2193 75.1038C63.41 73.8871 64.7253 72.5714 65.1422 72.1799C65.5592 71.7883 67.9169 69.4113 70.3814 66.8975C75.9387 61.2299 76.5279 60.868 79.2416 61.4572C80.708 61.7756 81.8364 62.7652 82.5215 64.3333C83.192 65.8682 83.1801 66.5207 82.4522 68.1567C81.9769 69.2248 81.2109 70.1432 78.5863 72.7911C76.7861 74.6072 74.651 76.8022 73.8419 77.6689C73.0329 78.5353 70.1058 81.4949 67.3373 84.2456C62.7789 88.7745 62.1772 89.294 60.9645 89.7478C59.6985 90.2215 59.5645 90.2301 58.5179 89.9059C56.6596 89.3301 55.1843 88.0809 49.8424 82.5585C47.0188 79.6395 44.6343 77.1382 44.5437 77.0001C44.453 76.8617 43.1769 75.5746 41.7081 74.1396C37.499 70.0277 35.9814 67.9493 35.9818 66.2974C35.982 65.2143 37.1571 62.9803 38.1158 62.24C39.4564 61.205 41.6626 61.0316 43.2652 61.8357Z" fill="#5B5B5B"/>
</g>
<defs>
<clipPath id="clip0_1083_831">
<rect width="119" height="119" fill="white"/>
</clipPath>
</defs>
</svg>
