<svg width="119" height="119" viewBox="0 0 119 119" fill="none" xmlns="http://www.w3.org/2000/svg">
<g clip-path="url(#clip0_1083_909)">
<circle cx="59.5" cy="59.5" r="59" fill="white" stroke="#C4C4C4"/>
<path fill-rule="evenodd" clip-rule="evenodd" d="M23 58.0188C23 38.5782 39.4424 23 59.5 23C79.5576 23 96 38.5782 96 58.0188C96 77.4595 79.5576 93.0377 59.5 93.0377C54.8322 93.0377 50.3673 92.1919 46.2582 90.6581L35.3531 95.7699C34.4944 96.1724 33.4801 96.0394 32.7543 95.4291C32.0285 94.8188 31.7233 93.8424 31.9724 92.9274L34.5319 83.5265C27.4661 77.1602 23 68.1088 23 58.0188ZM64.4466 65.0346L80.5249 51.636L77.4093 47.8973L64.2876 58.8321L54.6688 51.618L36.1861 64.8199L39.0148 68.7801L54.5987 57.6487L64.4466 65.0346Z" fill="black"/>
</g>
<defs>
<clipPath id="clip0_1083_909">
<rect width="119" height="119" rx="59.5" fill="white"/>
</clipPath>
</defs>
</svg>
