<svg width="119" height="119" viewBox="0 0 119 119" fill="none" xmlns="http://www.w3.org/2000/svg">
<g clip-path="url(#clip0_1083_380)">
<circle cx="59.5" cy="59.5" r="59" fill="white" stroke="#C4C4C4"/>
<path fill-rule="evenodd" clip-rule="evenodd" d="M48.2088 29.1277C47.2814 29.198 46.0317 29.4155 45.4317 29.6113C44.8316 29.8069 43.8051 30.107 43.1504 30.2784C40.5749 30.952 37.1606 32.5703 35.2349 34.0297C33.8911 35.0481 31.8603 36.8462 31.7639 37.103C31.7198 37.2198 31.4048 37.602 31.0638 37.9525C30.7226 38.3029 30.1789 38.9718 29.8554 39.4391C29.5319 39.9063 29.2192 40.3363 29.1607 40.3947C28.8709 40.684 27.4937 43.386 27.0572 44.5218C26.7849 45.2305 26.4409 46.527 26.2929 47.403C25.9528 49.4176 25.685 50.1639 25.3025 50.1639C25.0625 50.1639 25 50.4489 25 51.5443C25 52.5783 25.0688 52.9247 25.2745 52.9247C25.4624 52.9247 25.75 53.8124 26.1862 55.7387C26.8811 58.8085 27.8463 61.2402 29.2639 63.4926C30.2678 65.0879 32.8458 67.9781 33.9522 68.749C34.6501 69.2351 35.5134 70.7326 35.5134 71.457C35.5134 71.6475 35.2864 72.2604 35.0089 72.8191C34.6098 73.623 34.5166 74.0796 34.5626 75.0072C34.6138 76.041 34.6737 76.1876 35.0698 76.2477C35.3231 76.2863 36.4477 75.8168 37.6486 75.1712C40.7546 73.5015 41.0615 73.4467 44.4688 73.9532C46.0349 74.186 47.8003 74.5268 48.3921 74.7108C49.7255 75.1249 50.677 74.9647 51.1126 74.2529C51.3937 73.7935 51.4033 73.5678 51.1868 72.476C51.0196 71.6322 50.977 70.3038 51.0555 68.3931C51.2136 64.5525 51.4122 63.2337 51.9202 62.6467C52.1505 62.3806 52.4443 61.7329 52.5728 61.2072C52.7014 60.6816 52.9596 60.0604 53.1467 59.8268C53.3337 59.5932 53.8979 58.7331 54.4006 57.9155C54.903 57.0978 55.4785 56.2681 55.6792 56.0714C55.88 55.875 56.4013 55.346 56.8377 54.8962C58.2848 53.4045 60.681 51.598 62.2659 50.8042C62.7422 50.5655 63.3671 50.1943 63.6545 49.9787C64.3768 49.4376 67.0688 48.538 68.7396 48.2797C69.9278 48.0958 72.7141 47.8331 74.3873 47.7469C75.0012 47.7152 75.4007 46.9201 75.247 46.0354C75.0601 44.9597 74.0717 42.6185 73.251 41.3082C71.3313 38.2428 71.338 38.2521 69.8306 36.6432C68.7273 35.4656 65.7157 33.3091 63.8797 32.3824C60.4729 30.6626 59.9961 30.4493 59.2181 30.2981C58.7817 30.2134 57.9783 29.9726 57.4328 29.7632C55.6112 29.064 52.1731 28.8272 48.2088 29.1277ZM43.738 39.9853C44.643 40.3478 44.9272 40.591 45.3513 41.3657C46.3781 43.2414 46.1357 45.0941 44.662 46.6349C43.1774 48.1869 41.3733 48.1729 39.706 46.5962C38.8406 45.7778 38.62 45.4258 38.4819 44.6422C38.1122 42.5433 38.7326 41.1283 40.4503 40.1524C41.7232 39.4293 42.2798 39.4011 43.738 39.9853ZM61.4889 40.2104C62.5076 40.7554 62.7994 41.0338 63.1032 41.7501C64.109 44.121 63.1469 46.6621 60.926 47.5009C59.059 48.2062 57.429 47.5706 56.4947 45.7727C55.6766 44.1992 55.6717 42.8215 56.4792 41.6135C57.1693 40.5812 58.734 39.5576 59.6326 39.5501C59.9699 39.5476 60.8052 39.8445 61.4889 40.2104ZM68.7396 50.4852C67.6486 50.7719 66.3555 51.1094 65.8659 51.2351C65.3763 51.3606 64.8407 51.5849 64.6757 51.7333C64.5107 51.8818 63.9586 52.1678 63.449 52.3689C62.9394 52.5701 62.4199 52.867 62.2947 53.0284C62.1693 53.19 61.8024 53.3843 61.4788 53.4605C61.1553 53.5366 60.7518 53.8256 60.5822 54.103C60.4124 54.3803 60.0841 54.6715 59.8528 54.7501C59.394 54.9059 56.3418 58.1162 56.3418 58.4428C56.3418 58.5534 56.0855 58.958 55.7721 59.3416C54.9419 60.3584 53.5204 63.4811 53.3278 64.7114C53.0215 66.6688 52.7658 70.2267 52.8854 70.8702C53.0872 71.9569 53.9443 74.7849 54.2867 75.4938C54.6029 76.1485 56.2124 78.7567 57.2965 80.3713C57.5897 80.8078 58.0527 81.3278 58.3254 81.5271C58.5982 81.726 58.866 81.9429 58.9205 82.0087C58.9751 82.0746 59.3768 82.4139 59.8132 82.7631C62.3552 84.7967 62.602 84.9475 65.9075 86.4862C67.3025 87.1354 68.0652 87.3422 69.8407 87.5521C72.4772 87.8638 78.8727 87.7024 80.6511 87.2794C81.6881 87.0326 82.0109 87.0385 83.0315 87.3223C83.6809 87.503 84.5692 87.8545 85.0056 88.1034C85.442 88.3523 86.1855 88.6796 86.6578 88.8306C87.385 89.0633 87.5449 89.0589 87.7028 88.8012C87.946 88.4047 87.7474 86.5854 87.353 85.5946C86.9642 84.6179 86.8964 84.7275 90.0373 81.2626C91.3612 79.8024 92.4443 78.4806 92.4443 78.3253C92.4443 78.1701 92.7016 77.6965 93.0162 77.2726C93.3306 76.8489 93.8809 75.5696 94.2387 74.4296C94.8048 72.6257 94.9007 72.0019 94.9768 69.6208C95.0754 66.5348 94.8763 65.0996 94.0536 62.9657C92.8462 59.834 90.0772 56.2269 87.4445 54.3559C85.8346 53.2119 82.5885 51.4698 81.7581 51.3041C81.3622 51.2251 80.4134 50.9191 79.6497 50.6239C78.3784 50.1322 77.943 50.0819 74.4922 50.0254C71.0472 49.9689 70.5529 50.0084 68.7396 50.4852ZM68.8418 59.7737C69.9151 60.3561 70.4158 61.2321 70.566 62.7896C70.6786 63.9588 70.6745 63.97 69.7852 64.9221C68.9267 65.8412 68.8443 65.8792 67.7244 65.8763C66.3223 65.8727 65.7314 65.5847 65.1083 64.602C64.7052 63.9668 64.6491 63.661 64.7112 62.4439C64.7935 60.8335 65.0443 60.4136 66.3312 59.7315C67.3754 59.1782 67.7561 59.1846 68.8418 59.7737ZM83.3796 59.9381C83.6603 60.1745 84.128 60.8885 84.4186 61.5247L84.9473 62.6815L84.5327 63.5903C84.3046 64.09 83.906 64.7804 83.6472 65.1242C83.23 65.6783 83.0326 65.7578 81.9091 65.8232C80.3946 65.9113 79.8699 65.6618 79.1223 64.4973C78.3286 63.2613 78.2653 62.6905 78.7803 61.4092C79.1407 60.5122 79.3774 60.2289 80.0324 59.9103C81.1422 59.3707 82.7214 59.3838 83.3796 59.9381Z" fill="black"/>
</g>
<defs>
<clipPath id="clip0_1083_380">
<rect width="119" height="119" fill="white"/>
</clipPath>
</defs>
</svg>
