<svg width="62" height="60" viewBox="0 0 62 60" fill="none" xmlns="http://www.w3.org/2000/svg">
<g clip-path="url(#clip0_147_628)">
<ellipse cx="31.1471" cy="30" rx="30.6852" ry="30" fill="white"/>
<path d="M39.4156 10H22.8788C16.1581 10 10.6904 15.3456 10.6904 21.9162V38.0838C10.6904 44.6544 16.1581 50 22.8788 50H39.4156C46.1364 50 51.604 44.6544 51.604 38.0838V21.9162C51.604 15.3456 46.1363 10 39.4156 10ZM47.4881 38.0838C47.4881 42.4425 43.8739 45.976 39.4156 45.976H22.8788C18.4205 45.976 14.8063 42.4425 14.8063 38.0838V21.9162C14.8063 17.5574 18.4205 14.024 22.8788 14.024H39.4156C43.8739 14.024 47.4881 17.5574 47.4881 21.9162V38.0838Z" fill="url(#paint0_linear_147_628)"/>
<path d="M31.1471 19.6543C25.3124 19.6543 20.5654 24.2952 20.5654 29.9996C20.5654 35.7041 25.3124 40.3451 31.1471 40.3451C36.9819 40.3451 41.7289 35.7041 41.7289 29.9996C41.7289 24.2952 36.9819 19.6543 31.1471 19.6543ZM31.1471 36.3211C27.5761 36.3211 24.6813 33.491 24.6813 29.9997C24.6813 26.5085 27.5762 23.6783 31.1471 23.6783C34.7181 23.6783 37.613 26.5085 37.613 29.9997C37.613 33.4909 34.7181 36.3211 31.1471 36.3211Z" fill="url(#paint1_linear_147_628)"/>
<path d="M41.7495 22.2114C43.1498 22.2114 44.2851 21.1015 44.2851 19.7324C44.2851 18.3633 43.1498 17.2534 41.7495 17.2534C40.3491 17.2534 39.2139 18.3633 39.2139 19.7324C39.2139 21.1015 40.3491 22.2114 41.7495 22.2114Z" fill="url(#paint2_linear_147_628)"/>
</g>
<defs>
<linearGradient id="paint0_linear_147_628" x1="31.1472" y1="49.8836" x2="31.1472" y2="10.3107" gradientUnits="userSpaceOnUse">
<stop stop-color="#E09B3D"/>
<stop offset="0.3" stop-color="#C74C4D"/>
<stop offset="0.6" stop-color="#C21975"/>
<stop offset="1" stop-color="#7024C4"/>
</linearGradient>
<linearGradient id="paint1_linear_147_628" x1="31.1471" y1="49.8833" x2="31.1471" y2="10.3104" gradientUnits="userSpaceOnUse">
<stop stop-color="#E09B3D"/>
<stop offset="0.3" stop-color="#C74C4D"/>
<stop offset="0.6" stop-color="#C21975"/>
<stop offset="1" stop-color="#7024C4"/>
</linearGradient>
<linearGradient id="paint2_linear_147_628" x1="41.7495" y1="49.8837" x2="41.7495" y2="10.3108" gradientUnits="userSpaceOnUse">
<stop stop-color="#E09B3D"/>
<stop offset="0.3" stop-color="#C74C4D"/>
<stop offset="0.6" stop-color="#C21975"/>
<stop offset="1" stop-color="#7024C4"/>
</linearGradient>
<clipPath id="clip0_147_628">
<rect width="61.3704" height="60" fill="white" transform="translate(0.461914)"/>
</clipPath>
</defs>
</svg>
