<svg width="61" height="60" viewBox="0 0 61 60" fill="none" xmlns="http://www.w3.org/2000/svg">
<g clip-path="url(#clip0_147_623)">
<path d="M0.461914 30C0.461914 13.4315 13.8934 0 30.4619 0C47.0305 0 60.4619 13.4315 60.4619 30C60.4619 46.5685 47.0305 60 30.4619 60C13.8934 60 0.461914 46.5685 0.461914 30Z" fill="#00B900"/>
<path d="M30.9617 14C20.7617 14 12.4619 20.6862 12.4619 28.9047C12.4619 36.2725 19.0435 42.4429 27.9338 43.6097C28.5363 43.7386 29.3562 44.0041 29.5637 44.5153C29.7503 44.9797 29.6857 45.7071 29.6233 46.1761C29.6233 46.1761 29.4063 47.4722 29.3594 47.7482C29.2789 48.2126 28.9878 49.5643 30.9617 48.7383C32.9364 47.9123 41.6161 42.5101 45.4973 38.0749C48.1777 35.156 49.4619 32.1939 49.4619 28.9047C49.4619 20.6862 41.1632 14 30.9617 14Z" fill="white"/>
<path d="M25.8193 25C25.6221 25 25.4619 25.1654 25.4619 25.3686V33.6314C25.4619 33.835 25.6221 34 25.8193 34H27.1049C27.302 34 27.4619 33.835 27.4619 33.6314V25.3686C27.4619 25.1654 27.302 25 27.1049 25H25.8193Z" fill="#00B900"/>
<path d="M36.0861 25H34.7327C34.5252 25 34.3569 25.1654 34.3569 25.3686V30.2776L30.5041 25.1639C30.4952 25.1509 30.4852 25.1385 30.4749 25.1265L30.4723 25.1243C30.4649 25.116 30.4575 25.1087 30.4497 25.1014C30.4475 25.0992 30.4453 25.0974 30.4427 25.0952C30.4364 25.0894 30.4297 25.084 30.4227 25.0789C30.4197 25.076 30.4164 25.0738 30.4131 25.0712C30.4064 25.0669 30.4001 25.0622 30.3935 25.0582C30.3898 25.0556 30.3861 25.0534 30.382 25.0516C30.3754 25.0476 30.3687 25.0436 30.362 25.0404C30.358 25.0385 30.3543 25.0364 30.3502 25.0349C30.3432 25.0316 30.3362 25.0284 30.3288 25.0258C30.3243 25.0244 30.3206 25.0229 30.3165 25.0214C30.3091 25.0189 30.3018 25.0164 30.294 25.0145C30.2899 25.0131 30.2855 25.0124 30.281 25.0109C30.2736 25.0095 30.2666 25.0076 30.2596 25.0062C30.2544 25.0055 30.2489 25.0047 30.2437 25.0044C30.237 25.0029 30.2304 25.0025 30.2237 25.0018C30.2174 25.0011 30.2111 25.0011 30.2045 25.0007C30.1997 25.0007 30.196 25 30.1912 25H28.8381C28.6306 25 28.4619 25.1654 28.4619 25.3686V33.6314C28.4619 33.835 28.6306 34 28.8381 34H30.1912C30.399 34 30.5673 33.835 30.5673 33.6314V28.7239L34.4249 33.8441C34.4516 33.8811 34.4845 33.9113 34.5204 33.9353C34.5215 33.936 34.5229 33.9371 34.5241 33.9382C34.5318 33.9429 34.5396 33.9477 34.5474 33.952C34.5511 33.9542 34.5544 33.9557 34.5581 33.9575C34.5636 33.9607 34.5699 33.9636 34.5758 33.9662C34.5821 33.9687 34.5877 33.9713 34.5943 33.9738C34.598 33.9753 34.6017 33.9767 34.6054 33.9778C34.6143 33.9811 34.6224 33.9836 34.631 33.9862C34.6328 33.9862 34.6347 33.9869 34.6365 33.9873C34.6672 33.9953 34.6994 34 34.7327 34H36.0861C36.294 34 36.4619 33.835 36.4619 33.6314V25.3686C36.4619 25.1654 36.294 25 36.0861 25Z" fill="#00B900"/>
<path d="M24.0964 31.9309H20.5131V25.3693C20.5131 25.1654 20.3491 25 20.1473 25H18.8281C18.6259 25 18.4619 25.1654 18.4619 25.3693V33.6303V33.631C18.4619 33.7303 18.5012 33.8201 18.5643 33.8862C18.5657 33.888 18.5672 33.8899 18.5693 33.8917C18.5711 33.8935 18.5729 33.8949 18.5747 33.8968C18.6407 33.9607 18.7293 34 18.8277 34H24.0964C24.2986 34 24.4619 33.8342 24.4619 33.6303V32.3003C24.4619 32.0963 24.2986 31.9309 24.0964 31.9309Z" fill="#00B900"/>
<path d="M43.0964 27.0691C43.2986 27.0691 43.4619 26.904 43.4619 26.6997V25.3697C43.4619 25.1658 43.2986 25 43.0964 25H37.8281H37.8274C37.7286 25 37.6396 25.04 37.5736 25.1043C37.5722 25.1058 37.5704 25.1069 37.5693 25.1083C37.5672 25.1105 37.5654 25.1127 37.5636 25.1149C37.5008 25.181 37.4619 25.2704 37.4619 25.3693V25.3697V33.6307V33.631C37.4619 33.7303 37.5012 33.8201 37.5643 33.8862C37.5657 33.888 37.5675 33.8902 37.5693 33.8917C37.5708 33.8935 37.5729 33.8953 37.5747 33.8968C37.6403 33.9604 37.7293 34 37.8274 34H43.0964C43.2986 34 43.4619 33.8342 43.4619 33.6307V32.3003C43.4619 32.0967 43.2986 31.9309 43.0964 31.9309H39.5135V30.5344H43.0964C43.2986 30.5344 43.4619 30.369 43.4619 30.165V28.835C43.4619 28.631 43.2986 28.4653 43.0964 28.4653H39.5135V27.0691H43.0964Z" fill="#00B900"/>
</g>
<defs>
<clipPath id="clip0_147_623">
<rect width="60" height="60" fill="white" transform="translate(0.461914)"/>
</clipPath>
</defs>
</svg>
