<svg width="287" height="280" viewBox="0 0 287 280" fill="none" xmlns="http://www.w3.org/2000/svg">
<g clip-path="url(#clip0_147_635)">
<path d="M276.167 10H10.2285V270H276.167V10Z" fill="white"/>
<path d="M35.9221 26H26.5938V35.12H35.9221V26Z" fill="black"/>
<path d="M45.2504 26H35.9221V35.12H45.2504V26Z" fill="black"/>
<path d="M54.5787 26H45.2504V35.12H54.5787V26Z" fill="black"/>
<path d="M63.907 26H54.5787V35.12H63.907V26Z" fill="black"/>
<path d="M73.2353 26H63.907V35.12H73.2353V26Z" fill="black"/>
<path d="M82.5636 26H73.2353V35.12H82.5636V26Z" fill="black"/>
<path d="M91.8919 26H82.5636V35.12H91.8919V26Z" fill="black"/>
<path d="M110.548 26H101.22V35.12H110.548V26Z" fill="black"/>
<path d="M119.877 26H110.548V35.12H119.877V26Z" fill="black"/>
<path d="M166.518 26H157.19V35.12H166.518V26Z" fill="black"/>
<path d="M185.175 26H175.847V35.12H185.175V26Z" fill="black"/>
<path d="M203.831 26H194.503V35.12H203.831V26Z" fill="black"/>
<path d="M213.16 26H203.831V35.12H213.16V26Z" fill="black"/>
<path d="M222.488 26H213.16V35.12H222.488V26Z" fill="black"/>
<path d="M231.816 26H222.488V35.12H231.816V26Z" fill="black"/>
<path d="M241.145 26H231.816V35.12H241.145V26Z" fill="black"/>
<path d="M250.473 26H241.145V35.12H250.473V26Z" fill="black"/>
<path d="M259.801 26H250.473V35.12H259.801V26Z" fill="black"/>
<path d="M35.9221 35.12H26.5938V44.24H35.9221V35.12Z" fill="black"/>
<path d="M91.8919 35.12H82.5636L82.5636 44.24H91.8919V35.12Z" fill="black"/>
<path d="M119.877 35.12H110.548V44.24H119.877V35.12Z" fill="black"/>
<path d="M129.205 35.12H119.877V44.24H129.205V35.12Z" fill="black"/>
<path d="M147.862 35.12H138.533V44.24H147.862V35.12Z" fill="black"/>
<path d="M157.19 35.12H147.862V44.24H157.19V35.12Z" fill="black"/>
<path d="M175.847 35.12H166.518L166.518 44.24H175.847V35.12Z" fill="black"/>
<path d="M203.831 35.12H194.503V44.24H203.831V35.12Z" fill="black"/>
<path d="M259.801 35.12H250.473V44.24H259.801V35.12Z" fill="black"/>
<path d="M35.9221 44.24H26.5938V53.36H35.9221V44.24Z" fill="black"/>
<path d="M54.5787 44.24H45.2504V53.36H54.5787V44.24Z" fill="black"/>
<path d="M63.907 44.24H54.5787V53.36H63.907V44.24Z" fill="black"/>
<path d="M73.2353 44.24H63.907V53.36H73.2353V44.24Z" fill="black"/>
<path d="M91.8919 44.24H82.5636V53.36H91.8919V44.24Z" fill="black"/>
<path d="M110.548 44.24H101.22V53.36H110.548V44.24Z" fill="black"/>
<path d="M147.862 44.24H138.533V53.36H147.862V44.24Z" fill="black"/>
<path d="M157.19 44.24H147.862V53.36H157.19V44.24Z" fill="black"/>
<path d="M203.831 44.24H194.503V53.36H203.831V44.24Z" fill="black"/>
<path d="M222.488 44.24H213.16V53.36H222.488V44.24Z" fill="black"/>
<path d="M231.816 44.24H222.488V53.36H231.816V44.24Z" fill="black"/>
<path d="M241.145 44.24H231.816V53.36H241.145V44.24Z" fill="black"/>
<path d="M259.801 44.24H250.473V53.36H259.801V44.24Z" fill="black"/>
<path d="M35.9221 53.36H26.5938V62.48H35.9221V53.36Z" fill="black"/>
<path d="M54.5787 53.36H45.2504V62.48H54.5787V53.36Z" fill="black"/>
<path d="M63.907 53.36H54.5787V62.48H63.907V53.36Z" fill="black"/>
<path d="M73.2353 53.36H63.907V62.48H73.2353V53.36Z" fill="black"/>
<path d="M91.8919 53.36H82.5636V62.48H91.8919V53.36Z" fill="black"/>
<path d="M129.205 53.36H119.877V62.48H129.205V53.36Z" fill="black"/>
<path d="M157.19 53.36H147.862V62.48H157.19V53.36Z" fill="black"/>
<path d="M166.518 53.36H157.19V62.48H166.518V53.36Z" fill="black"/>
<path d="M175.847 53.36H166.518V62.48H175.847V53.36Z" fill="black"/>
<path d="M203.831 53.36H194.503V62.48H203.831V53.36Z" fill="black"/>
<path d="M222.488 53.36H213.16V62.48H222.488V53.36Z" fill="black"/>
<path d="M231.816 53.36H222.488V62.48H231.816V53.36Z" fill="black"/>
<path d="M241.145 53.36H231.816V62.48H241.145V53.36Z" fill="black"/>
<path d="M259.801 53.36H250.473V62.48H259.801V53.36Z" fill="black"/>
<path d="M35.9221 62.48H26.5938V71.6H35.9221V62.48Z" fill="black"/>
<path d="M54.5787 62.48H45.2504V71.6H54.5787V62.48Z" fill="black"/>
<path d="M63.907 62.48H54.5787V71.6H63.907V62.48Z" fill="black"/>
<path d="M73.2353 62.48H63.907V71.6H73.2353V62.48Z" fill="black"/>
<path d="M91.8919 62.48H82.5636V71.6H91.8919V62.48Z" fill="black"/>
<path d="M110.548 62.48H101.22V71.6H110.548V62.48Z" fill="black"/>
<path d="M119.877 62.48H110.548V71.6H119.877V62.48Z" fill="black"/>
<path d="M147.862 62.48H138.533V71.6H147.862V62.48Z" fill="black"/>
<path d="M157.19 62.48H147.862V71.6H157.19V62.48Z" fill="black"/>
<path d="M175.847 62.48H166.518L166.518 71.6H175.847V62.48Z" fill="black"/>
<path d="M203.831 62.48H194.503V71.6H203.831V62.48Z" fill="black"/>
<path d="M222.488 62.48H213.16V71.6H222.488V62.48Z" fill="black"/>
<path d="M231.816 62.48H222.488V71.6H231.816V62.48Z" fill="black"/>
<path d="M241.145 62.48H231.816V71.6H241.145V62.48Z" fill="black"/>
<path d="M259.801 62.48H250.473V71.6H259.801V62.48Z" fill="black"/>
<path d="M35.9221 71.6H26.5938V80.72H35.9221V71.6Z" fill="black"/>
<path d="M91.8919 71.6H82.5636V80.72H91.8919V71.6Z" fill="black"/>
<path d="M129.205 71.6H119.877V80.72H129.205V71.6Z" fill="black"/>
<path d="M147.862 71.6H138.533V80.72H147.862V71.6Z" fill="black"/>
<path d="M203.831 71.6H194.503V80.72H203.831V71.6Z" fill="black"/>
<path d="M259.801 71.6H250.473V80.72H259.801V71.6Z" fill="black"/>
<path d="M35.9221 80.72H26.5938V89.84H35.9221V80.72Z" fill="black"/>
<path d="M45.2504 80.72L35.9221 80.72V89.84H45.2504V80.72Z" fill="black"/>
<path d="M54.5787 80.72H45.2504V89.84H54.5787V80.72Z" fill="black"/>
<path d="M63.907 80.72H54.5787V89.84H63.907V80.72Z" fill="black"/>
<path d="M73.2353 80.72H63.907V89.84H73.2353V80.72Z" fill="black"/>
<path d="M82.5636 80.72L73.2353 80.72V89.84H82.5636L82.5636 80.72Z" fill="black"/>
<path d="M91.8919 80.72H82.5636L82.5636 89.84H91.8919V80.72Z" fill="black"/>
<path d="M110.548 80.72H101.22V89.84H110.548V80.72Z" fill="black"/>
<path d="M129.205 80.72H119.877V89.84H129.205V80.72Z" fill="black"/>
<path d="M147.862 80.72H138.533V89.84H147.862V80.72Z" fill="black"/>
<path d="M166.518 80.72H157.19V89.84H166.518V80.72Z" fill="black"/>
<path d="M185.175 80.72H175.847V89.84H185.175V80.72Z" fill="black"/>
<path d="M203.831 80.72H194.503V89.84H203.831V80.72Z" fill="black"/>
<path d="M213.16 80.72L203.831 80.72V89.84H213.16V80.72Z" fill="black"/>
<path d="M222.488 80.72H213.16V89.84H222.488V80.72Z" fill="black"/>
<path d="M231.816 80.72H222.488V89.84H231.816V80.72Z" fill="black"/>
<path d="M241.145 80.72H231.816V89.84H241.145V80.72Z" fill="black"/>
<path d="M250.473 80.72L241.145 80.72V89.84H250.473V80.72Z" fill="black"/>
<path d="M259.801 80.72H250.473V89.84H259.801V80.72Z" fill="black"/>
<path d="M119.877 89.84H110.548V98.96H119.877V89.84Z" fill="black"/>
<path d="M129.205 89.84H119.877V98.96H129.205V89.84Z" fill="black"/>
<path d="M147.862 89.84H138.533V98.96H147.862V89.84Z" fill="black"/>
<path d="M157.19 89.84H147.862V98.96H157.19V89.84Z" fill="black"/>
<path d="M166.518 89.84H157.19V98.96H166.518V89.84Z" fill="black"/>
<path d="M175.847 89.84H166.518V98.96H175.847V89.84Z" fill="black"/>
<path d="M185.175 89.84H175.847V98.96H185.175V89.84Z" fill="black"/>
<path d="M45.2504 98.96H35.9221V108.08H45.2504V98.96Z" fill="black"/>
<path d="M73.2353 98.96H63.907V108.08H73.2353V98.96Z" fill="black"/>
<path d="M91.8919 98.96H82.5636V108.08H91.8919V98.96Z" fill="black"/>
<path d="M119.877 98.96H110.548V108.08H119.877V98.96Z" fill="black"/>
<path d="M138.533 98.96H129.205V108.08H138.533V98.96Z" fill="black"/>
<path d="M185.175 98.96H175.847V108.08H185.175V98.96Z" fill="black"/>
<path d="M194.503 98.96H185.175V108.08H194.503V98.96Z" fill="black"/>
<path d="M222.488 98.96H213.16V108.08H222.488V98.96Z" fill="black"/>
<path d="M241.145 98.96H231.816V108.08H241.145V98.96Z" fill="black"/>
<path d="M259.801 98.96H250.473V108.08H259.801V98.96Z" fill="black"/>
<path d="M35.9221 108.08H26.5938V117.2H35.9221V108.08Z" fill="black"/>
<path d="M45.2504 108.08H35.9221V117.2H45.2504V108.08Z" fill="black"/>
<path d="M63.907 108.08H54.5787V117.2H63.907V108.08Z" fill="black"/>
<path d="M119.877 108.08H110.548V117.2H119.877V108.08Z" fill="black"/>
<path d="M129.205 108.08H119.877V117.2H129.205V108.08Z" fill="black"/>
<path d="M147.862 108.08H138.533V117.2H147.862V108.08Z" fill="black"/>
<path d="M157.19 108.08H147.862V117.2H157.19V108.08Z" fill="black"/>
<path d="M166.518 108.08H157.19V117.2H166.518V108.08Z" fill="black"/>
<path d="M175.847 108.08H166.518V117.2H175.847V108.08Z" fill="black"/>
<path d="M185.175 108.08H175.847V117.2H185.175V108.08Z" fill="black"/>
<path d="M203.831 108.08H194.503V117.2H203.831V108.08Z" fill="black"/>
<path d="M222.488 108.08H213.16V117.2H222.488V108.08Z" fill="black"/>
<path d="M231.816 108.08H222.488V117.2H231.816V108.08Z" fill="black"/>
<path d="M250.473 108.08H241.145V117.2H250.473V108.08Z" fill="black"/>
<path d="M259.801 108.08H250.473V117.2H259.801V108.08Z" fill="black"/>
<path d="M35.9221 117.2H26.5938V126.32H35.9221V117.2Z" fill="black"/>
<path d="M82.5636 117.2H73.2353V126.32H82.5636V117.2Z" fill="black"/>
<path d="M91.8919 117.2H82.5636V126.32H91.8919V117.2Z" fill="black"/>
<path d="M101.22 117.2H91.8919V126.32H101.22V117.2Z" fill="black"/>
<path d="M110.548 117.2H101.22V126.32H110.548V117.2Z" fill="black"/>
<path d="M129.205 117.2H119.877V126.32H129.205V117.2Z" fill="black"/>
<path d="M138.533 117.2H129.205V126.32H138.533V117.2Z" fill="black"/>
<path d="M157.19 117.2H147.862V126.32H157.19V117.2Z" fill="black"/>
<path d="M166.518 117.2H157.19V126.32H166.518V117.2Z" fill="black"/>
<path d="M175.847 117.2H166.518V126.32H175.847V117.2Z" fill="black"/>
<path d="M213.16 117.2H203.831V126.32H213.16V117.2Z" fill="black"/>
<path d="M222.488 117.2H213.16V126.32H222.488V117.2Z" fill="black"/>
<path d="M259.801 117.2H250.473V126.32H259.801V117.2Z" fill="black"/>
<path d="M35.9221 126.32H26.5938V135.44H35.9221V126.32Z" fill="black"/>
<path d="M63.907 126.32H54.5787V135.44H63.907V126.32Z" fill="black"/>
<path d="M101.22 126.32H91.8919V135.44H101.22V126.32Z" fill="black"/>
<path d="M110.548 126.32H101.22V135.44H110.548V126.32Z" fill="black"/>
<path d="M119.877 126.32H110.548V135.44H119.877V126.32Z" fill="black"/>
<path d="M138.533 126.32H129.205V135.44H138.533V126.32Z" fill="black"/>
<path d="M157.19 126.32H147.862V135.44H157.19V126.32Z" fill="black"/>
<path d="M166.518 126.32H157.19V135.44H166.518V126.32Z" fill="black"/>
<path d="M185.175 126.32H175.847V135.44H185.175V126.32Z" fill="black"/>
<path d="M194.503 126.32H185.175V135.44H194.503V126.32Z" fill="black"/>
<path d="M213.16 126.32H203.831V135.44H213.16V126.32Z" fill="black"/>
<path d="M231.816 126.32H222.488V135.44H231.816V126.32Z" fill="black"/>
<path d="M241.145 126.32H231.816V135.44H241.145V126.32Z" fill="black"/>
<path d="M259.801 126.32H250.473V135.44H259.801V126.32Z" fill="black"/>
<path d="M45.2504 135.44H35.9221V144.56H45.2504V135.44Z" fill="black"/>
<path d="M54.5787 135.44H45.2504V144.56H54.5787V135.44Z" fill="black"/>
<path d="M63.907 135.44H54.5787V144.56H63.907V135.44Z" fill="black"/>
<path d="M82.5636 135.44H73.2353V144.56H82.5636V135.44Z" fill="black"/>
<path d="M91.8919 135.44H82.5636V144.56H91.8919V135.44Z" fill="black"/>
<path d="M110.548 135.44H101.22V144.56H110.548V135.44Z" fill="black"/>
<path d="M129.205 135.44H119.877V144.56H129.205V135.44Z" fill="black"/>
<path d="M138.533 135.44H129.205V144.56H138.533V135.44Z" fill="black"/>
<path d="M147.862 135.44H138.533V144.56H147.862V135.44Z" fill="black"/>
<path d="M157.19 135.44H147.862V144.56H157.19V135.44Z" fill="black"/>
<path d="M166.518 135.44H157.19V144.56H166.518V135.44Z" fill="black"/>
<path d="M175.847 135.44H166.518V144.56H175.847V135.44Z" fill="black"/>
<path d="M222.488 135.44H213.16V144.56H222.488V135.44Z" fill="black"/>
<path d="M231.816 135.44H222.488V144.56H231.816V135.44Z" fill="black"/>
<path d="M241.145 135.44H231.816V144.56H241.145V135.44Z" fill="black"/>
<path d="M250.473 135.44H241.145V144.56H250.473V135.44Z" fill="black"/>
<path d="M35.9221 144.56H26.5938V153.68H35.9221V144.56Z" fill="black"/>
<path d="M54.5787 144.56H45.2504V153.68H54.5787V144.56Z" fill="black"/>
<path d="M63.907 144.56H54.5787V153.68H63.907V144.56Z" fill="black"/>
<path d="M82.5636 144.56H73.2353V153.68H82.5636V144.56Z" fill="black"/>
<path d="M101.22 144.56H91.8919V153.68H101.22V144.56Z" fill="black"/>
<path d="M129.205 144.56H119.877V153.68H129.205V144.56Z" fill="black"/>
<path d="M157.19 144.56H147.862V153.68H157.19V144.56Z" fill="black"/>
<path d="M175.847 144.56H166.518L166.518 153.68H175.847V144.56Z" fill="black"/>
<path d="M203.831 144.56H194.503V153.68H203.831V144.56Z" fill="black"/>
<path d="M231.816 144.56H222.488V153.68H231.816V144.56Z" fill="black"/>
<path d="M250.473 144.56H241.145V153.68H250.473V144.56Z" fill="black"/>
<path d="M45.2504 153.68H35.9221V162.8H45.2504V153.68Z" fill="black"/>
<path d="M54.5787 153.68H45.2504V162.8H54.5787V153.68Z" fill="black"/>
<path d="M63.907 153.68H54.5787V162.8H63.907V153.68Z" fill="black"/>
<path d="M73.2353 153.68H63.907V162.8H73.2353V153.68Z" fill="black"/>
<path d="M91.8919 153.68H82.5636L82.5636 162.8H91.8919V153.68Z" fill="black"/>
<path d="M101.22 153.68H91.8919V162.8H101.22V153.68Z" fill="black"/>
<path d="M110.548 153.68H101.22V162.8H110.548V153.68Z" fill="black"/>
<path d="M119.877 153.68H110.548V162.8H119.877V153.68Z" fill="black"/>
<path d="M166.518 153.68H157.19V162.8H166.518L166.518 153.68Z" fill="black"/>
<path d="M175.847 153.68H166.518L166.518 162.8H175.847V153.68Z" fill="black"/>
<path d="M185.175 153.68H175.847V162.8H185.175V153.68Z" fill="black"/>
<path d="M194.503 153.68H185.175V162.8H194.503V153.68Z" fill="black"/>
<path d="M241.145 153.68H231.816V162.8H241.145V153.68Z" fill="black"/>
<path d="M250.473 153.68H241.145V162.8H250.473V153.68Z" fill="black"/>
<path d="M259.801 153.68H250.473V162.8H259.801V153.68Z" fill="black"/>
<path d="M45.2504 162.8H35.9221V171.92H45.2504V162.8Z" fill="black"/>
<path d="M63.907 162.8H54.5787V171.92H63.907V162.8Z" fill="black"/>
<path d="M110.548 162.8H101.22V171.92H110.548V162.8Z" fill="black"/>
<path d="M119.877 162.8H110.548V171.92H119.877V162.8Z" fill="black"/>
<path d="M138.533 162.8H129.205V171.92H138.533V162.8Z" fill="black"/>
<path d="M157.19 162.8L147.862 162.8V171.92H157.19V162.8Z" fill="black"/>
<path d="M175.847 162.8H166.518L166.518 171.92H175.847V162.8Z" fill="black"/>
<path d="M194.503 162.8H185.175V171.92H194.503V162.8Z" fill="black"/>
<path d="M241.145 162.8H231.816V171.92H241.145V162.8Z" fill="black"/>
<path d="M250.473 162.8H241.145V171.92H250.473V162.8Z" fill="black"/>
<path d="M259.801 162.8H250.473V171.92H259.801V162.8Z" fill="black"/>
<path d="M35.9221 171.92H26.5938V181.04H35.9221V171.92Z" fill="black"/>
<path d="M45.2504 171.92H35.9221V181.04H45.2504V171.92Z" fill="black"/>
<path d="M54.5787 171.92H45.2504V181.04H54.5787V171.92Z" fill="black"/>
<path d="M91.8919 171.92H82.5636V181.04H91.8919V171.92Z" fill="black"/>
<path d="M101.22 171.92H91.8919V181.04H101.22V171.92Z" fill="black"/>
<path d="M110.548 171.92H101.22V181.04H110.548V171.92Z" fill="black"/>
<path d="M138.533 171.92H129.205V181.04H138.533V171.92Z" fill="black"/>
<path d="M147.862 171.92H138.533V181.04H147.862V171.92Z" fill="black"/>
<path d="M157.19 171.92H147.862V181.04H157.19V171.92Z" fill="black"/>
<path d="M166.518 171.92H157.19V181.04H166.518L166.518 171.92Z" fill="black"/>
<path d="M175.847 171.92H166.518L166.518 181.04H175.847V171.92Z" fill="black"/>
<path d="M185.175 171.92H175.847V181.04H185.175V171.92Z" fill="black"/>
<path d="M194.503 171.92H185.175V181.04H194.503V171.92Z" fill="black"/>
<path d="M203.831 171.92H194.503V181.04H203.831V171.92Z" fill="black"/>
<path d="M213.16 171.92H203.831V181.04H213.16V171.92Z" fill="black"/>
<path d="M222.488 171.92H213.16V181.04H222.488V171.92Z" fill="black"/>
<path d="M231.816 171.92H222.488V181.04H231.816V171.92Z" fill="black"/>
<path d="M259.801 171.92H250.473V181.04H259.801V171.92Z" fill="black"/>
<path d="M138.533 181.04H129.205V190.16H138.533V181.04Z" fill="black"/>
<path d="M157.19 181.04H147.862V190.16H157.19V181.04Z" fill="black"/>
<path d="M175.847 181.04H166.518L166.518 190.16H175.847V181.04Z" fill="black"/>
<path d="M185.175 181.04H175.847V190.16H185.175V181.04Z" fill="black"/>
<path d="M222.488 181.04H213.16V190.16H222.488V181.04Z" fill="black"/>
<path d="M250.473 181.04H241.145V190.16H250.473V181.04Z" fill="black"/>
<path d="M259.801 181.04H250.473V190.16H259.801V181.04Z" fill="black"/>
<path d="M35.9221 190.16H26.5938V199.28H35.9221V190.16Z" fill="black"/>
<path d="M45.2504 190.16H35.9221V199.28H45.2504V190.16Z" fill="black"/>
<path d="M54.5787 190.16H45.2504V199.28H54.5787V190.16Z" fill="black"/>
<path d="M63.907 190.16H54.5787V199.28H63.907V190.16Z" fill="black"/>
<path d="M73.2353 190.16H63.907V199.28H73.2353V190.16Z" fill="black"/>
<path d="M82.5636 190.16H73.2353V199.28H82.5636V190.16Z" fill="black"/>
<path d="M91.8919 190.16H82.5636V199.28H91.8919V190.16Z" fill="black"/>
<path d="M129.205 190.16H119.877V199.28H129.205V190.16Z" fill="black"/>
<path d="M138.533 190.16H129.205V199.28H138.533V190.16Z" fill="black"/>
<path d="M147.862 190.16H138.533V199.28H147.862V190.16Z" fill="black"/>
<path d="M157.19 190.16H147.862V199.28H157.19V190.16Z" fill="black"/>
<path d="M166.518 190.16H157.19V199.28H166.518L166.518 190.16Z" fill="black"/>
<path d="M185.175 190.16H175.847V199.28H185.175V190.16Z" fill="black"/>
<path d="M203.831 190.16H194.503V199.28H203.831V190.16Z" fill="black"/>
<path d="M222.488 190.16H213.16V199.28H222.488V190.16Z" fill="black"/>
<path d="M241.145 190.16H231.816V199.28H241.145V190.16Z" fill="black"/>
<path d="M35.9221 199.28H26.5938V208.4H35.9221V199.28Z" fill="black"/>
<path d="M91.8919 199.28H82.5636L82.5636 208.4H91.8919V199.28Z" fill="black"/>
<path d="M129.205 199.28H119.877V208.4H129.205V199.28Z" fill="black"/>
<path d="M138.533 199.28H129.205V208.4H138.533V199.28Z" fill="black"/>
<path d="M147.862 199.28H138.533V208.4H147.862V199.28Z" fill="black"/>
<path d="M175.847 199.28H166.518L166.518 208.4H175.847V199.28Z" fill="black"/>
<path d="M185.175 199.28H175.847V208.4H185.175V199.28Z" fill="black"/>
<path d="M222.488 199.28H213.16V208.4H222.488V199.28Z" fill="black"/>
<path d="M231.816 199.28H222.488V208.4H231.816V199.28Z" fill="black"/>
<path d="M35.9221 208.4H26.5938V217.52H35.9221V208.4Z" fill="black"/>
<path d="M54.5787 208.4H45.2504V217.52H54.5787V208.4Z" fill="black"/>
<path d="M63.907 208.4H54.5787V217.52H63.907V208.4Z" fill="black"/>
<path d="M73.2353 208.4H63.907V217.52H73.2353V208.4Z" fill="black"/>
<path d="M91.8919 208.4H82.5636V217.52H91.8919V208.4Z" fill="black"/>
<path d="M110.548 208.4H101.22V217.52H110.548V208.4Z" fill="black"/>
<path d="M129.205 208.4H119.877V217.52H129.205V208.4Z" fill="black"/>
<path d="M147.862 208.4H138.533V217.52H147.862V208.4Z" fill="black"/>
<path d="M166.518 208.4H157.19V217.52H166.518L166.518 208.4Z" fill="black"/>
<path d="M185.175 208.4H175.847V217.52H185.175V208.4Z" fill="black"/>
<path d="M194.503 208.4H185.175V217.52H194.503V208.4Z" fill="black"/>
<path d="M203.831 208.4H194.503V217.52H203.831V208.4Z" fill="black"/>
<path d="M213.16 208.4H203.831V217.52H213.16V208.4Z" fill="black"/>
<path d="M222.488 208.4H213.16V217.52H222.488V208.4Z" fill="black"/>
<path d="M231.816 208.4H222.488V217.52H231.816V208.4Z" fill="black"/>
<path d="M241.145 208.4H231.816V217.52H241.145V208.4Z" fill="black"/>
<path d="M250.473 208.4H241.145V217.52H250.473V208.4Z" fill="black"/>
<path d="M259.801 208.4H250.473V217.52H259.801V208.4Z" fill="black"/>
<path d="M35.9221 217.52H26.5938V226.64H35.9221V217.52Z" fill="black"/>
<path d="M54.5787 217.52H45.2504V226.64H54.5787V217.52Z" fill="black"/>
<path d="M63.907 217.52H54.5787V226.64H63.907V217.52Z" fill="black"/>
<path d="M73.2353 217.52H63.907V226.64H73.2353V217.52Z" fill="black"/>
<path d="M91.8919 217.52H82.5636V226.64H91.8919V217.52Z" fill="black"/>
<path d="M119.877 217.52H110.548V226.64H119.877V217.52Z" fill="black"/>
<path d="M129.205 217.52H119.877V226.64H129.205V217.52Z" fill="black"/>
<path d="M147.862 217.52H138.533V226.64H147.862V217.52Z" fill="black"/>
<path d="M157.19 217.52H147.862V226.64H157.19V217.52Z" fill="black"/>
<path d="M166.518 217.52H157.19V226.64H166.518V217.52Z" fill="black"/>
<path d="M175.847 217.52H166.518V226.64H175.847V217.52Z" fill="black"/>
<path d="M194.503 217.52H185.175V226.64H194.503V217.52Z" fill="black"/>
<path d="M231.816 217.52H222.488V226.64H231.816V217.52Z" fill="black"/>
<path d="M241.145 217.52H231.816V226.64H241.145V217.52Z" fill="black"/>
<path d="M259.801 217.52H250.473V226.64H259.801V217.52Z" fill="black"/>
<path d="M35.9221 226.64H26.5938V235.76H35.9221V226.64Z" fill="black"/>
<path d="M54.5787 226.64H45.2504V235.76H54.5787V226.64Z" fill="black"/>
<path d="M63.907 226.64H54.5787V235.76H63.907V226.64Z" fill="black"/>
<path d="M73.2353 226.64H63.907V235.76H73.2353V226.64Z" fill="black"/>
<path d="M91.8919 226.64H82.5636V235.76H91.8919V226.64Z" fill="black"/>
<path d="M119.877 226.64H110.548V235.76H119.877V226.64Z" fill="black"/>
<path d="M129.205 226.64H119.877V235.76H129.205V226.64Z" fill="black"/>
<path d="M203.831 226.64H194.503V235.76H203.831V226.64Z" fill="black"/>
<path d="M231.816 226.64H222.488V235.76H231.816V226.64Z" fill="black"/>
<path d="M241.145 226.64H231.816V235.76H241.145V226.64Z" fill="black"/>
<path d="M35.9221 235.76H26.5938V244.88H35.9221V235.76Z" fill="black"/>
<path d="M91.8919 235.76H82.5636V244.88H91.8919V235.76Z" fill="black"/>
<path d="M110.548 235.76H101.22V244.88H110.548V235.76Z" fill="black"/>
<path d="M119.877 235.76H110.548V244.88H119.877V235.76Z" fill="black"/>
<path d="M129.205 235.76H119.877V244.88H129.205V235.76Z" fill="black"/>
<path d="M138.533 235.76H129.205V244.88H138.533V235.76Z" fill="black"/>
<path d="M157.19 235.76H147.862V244.88H157.19V235.76Z" fill="black"/>
<path d="M166.518 235.76H157.19V244.88H166.518V235.76Z" fill="black"/>
<path d="M175.847 235.76H166.518V244.88H175.847V235.76Z" fill="black"/>
<path d="M185.175 235.76H175.847V244.88H185.175V235.76Z" fill="black"/>
<path d="M203.831 235.76H194.503V244.88H203.831V235.76Z" fill="black"/>
<path d="M222.488 235.76H213.16V244.88H222.488V235.76Z" fill="black"/>
<path d="M231.816 235.76H222.488V244.88H231.816V235.76Z" fill="black"/>
<path d="M250.473 235.76H241.145V244.88H250.473V235.76Z" fill="black"/>
<path d="M259.801 235.76H250.473V244.88H259.801V235.76Z" fill="black"/>
<path d="M35.9221 244.88H26.5938V254H35.9221V244.88Z" fill="black"/>
<path d="M45.2504 244.88H35.9221V254H45.2504V244.88Z" fill="black"/>
<path d="M54.5787 244.88H45.2504V254H54.5787V244.88Z" fill="black"/>
<path d="M63.907 244.88H54.5787V254H63.907V244.88Z" fill="black"/>
<path d="M73.2353 244.88H63.907V254H73.2353V244.88Z" fill="black"/>
<path d="M82.5636 244.88H73.2353V254H82.5636L82.5636 244.88Z" fill="black"/>
<path d="M91.8919 244.88H82.5636L82.5636 254H91.8919V244.88Z" fill="black"/>
<path d="M119.877 244.88H110.548V254H119.877V244.88Z" fill="black"/>
<path d="M129.205 244.88H119.877V254H129.205V244.88Z" fill="black"/>
<path d="M157.19 244.88H147.862V254H157.19V244.88Z" fill="black"/>
<path d="M166.518 244.88H157.19V254H166.518V244.88Z" fill="black"/>
<path d="M185.175 244.88H175.847V254H185.175V244.88Z" fill="black"/>
<path d="M203.831 244.88H194.503V254H203.831V244.88Z" fill="black"/>
<path d="M213.16 244.88H203.831V254H213.16V244.88Z" fill="black"/>
<path d="M241.145 244.88H231.816V254H241.145V244.88Z" fill="black"/>
<path d="M259.801 244.88H250.473V254H259.801V244.88Z" fill="black"/>
</g>
<rect x="0.5" y="0.5" width="285.395" height="279" stroke="#C4C4C4"/>
<defs>
<clipPath id="clip0_147_635">
<rect width="265.938" height="260" fill="white" transform="translate(10.2285 10)"/>
</clipPath>
</defs>
</svg>
