<svg width="61" height="60" viewBox="0 0 61 60" fill="none" xmlns="http://www.w3.org/2000/svg">
<g clip-path="url(#clip0_147_633)">
<path d="M0.832031 30C0.832031 46.5685 14.2635 60 30.832 60C47.4006 60 60.832 46.5685 60.832 30C60.832 13.4315 47.4006 0 30.832 0C14.2635 0 0.832031 13.4315 0.832031 30Z" fill="#FF0000"/>
<path d="M45.082 22.6875C44.707 21.375 43.7696 20.4375 42.4571 20.0625C40.2071 19.5 30.6445 19.5 30.6445 19.5C30.6445 19.5 21.2695 19.5 18.832 20.0625C17.5195 20.4375 16.582 21.375 16.207 22.6875C15.832 25.125 15.832 30 15.832 30C15.832 30 15.832 34.875 16.3945 37.3125C16.7695 38.625 17.707 39.5625 19.0195 39.9375C21.2695 40.5 30.832 40.5 30.832 40.5C30.832 40.5 40.207 40.5 42.6445 39.9375C43.957 39.5625 44.8946 38.625 45.2696 37.3125C45.8321 34.875 45.832 30 45.832 30C45.832 30 45.832 25.125 45.082 22.6875ZM27.832 34.5V25.5L35.707 30L27.832 34.5Z" fill="white"/>
</g>
<defs>
<clipPath id="clip0_147_633">
<rect width="60" height="60" fill="white" transform="translate(0.832031)"/>
</clipPath>
</defs>
</svg>
